<svg id="Ebene_1" data-name="Ebene 1" xmlns="http://www.w3.org/2000/svg" xmlns:xlink="http://www.w3.org/1999/xlink" viewBox="0 0 761.64 761.64"><defs><style>.cls-1{fill:none;}.cls-2{clip-path:url(#clip-path);}.cls-3{clip-path:url(#clip-path-2);}.cls-4{fill:#fff;}.cls-5{clip-path:url(#clip-path-3);}.cls-6{clip-path:url(#clip-path-4);}</style><clipPath id="clip-path"><path class="cls-1" d="M561.92,196.07h65.16V576.58H561.92V318.36h-64.6v-65h14.23a48.13,48.13,0,0,0,35.59-15,49.19,49.19,0,0,0,14.78-35.76ZM223,481.05q23,36,66.24,36t66.25-36.31q23-36.3,23-95.81,0-59-23-95.26t-66.25-36.31Q246,253.39,223,289.7T200,385Q200,444.47,223,481.05Zm66.24-292.63q70.64,0,114.16,55.42T447,385q0,86.27-43.53,141.67T289.26,582q-70.08,0-113.6-55.41T132.13,385q0-85.71,43.53-141.12T289.26,188.42Z"/></clipPath><clipPath id="clip-path-2"><rect class="cls-1" x="26.9" y="36.43" width="701.5" height="701.5"/></clipPath><clipPath id="clip-path-3"><path class="cls-1" d="M436.1,304a19.43,19.43,0,0,0-19.63,19.71V336a19.63,19.63,0,1,0,39.26,0V323.66A19.42,19.42,0,0,0,436.1,304Zm61.35,12.32A19.43,19.43,0,1,0,511.4,322,19.33,19.33,0,0,0,497.45,316.27ZM374.76,291.63a19.42,19.42,0,0,0-19.63,19.71v37a19.63,19.63,0,1,0,39.26,0v-37a19.43,19.43,0,0,0-19.63-19.71ZM258.2,402.51a20,20,0,0,0-14.11,33.88l5.52,5.55H295a19.72,19.72,0,0,0,0-39.43Zm68.71,118.28a110.2,110.2,0,0,0,78.52,32c61.56-.24,111.41-50.29,111.65-112.12V372.94l-1.84.62a36.2,36.2,0,0,1-17.79,4.31,42.85,42.85,0,0,1-30.06-12.32l-.62-1.23-.61.61a41.63,41.63,0,0,1-30.06,12.33,37.43,37.43,0,0,1-23.92-8l-1.23-.62-.61,1.23A41.81,41.81,0,0,1,333,347.69V237.36a19.63,19.63,0,1,0-39.26,0V380.27H295a41.89,41.89,0,0,1,0,83.78H271.7l54,54.83ZM405.43,575a130.94,130.94,0,0,1-93.86-38.8l-82.81-84.4a41.75,41.75,0,0,1,0-59.13A42.79,42.79,0,0,1,257,380.34H271.7v-143a41.72,41.72,0,1,1,83.43,0v37l1.84-.62a44.58,44.58,0,0,1,17.79-4.31,41.92,41.92,0,0,1,35.58,19.71l.61,1.24,1.23-.62a42.87,42.87,0,0,1,23.92-8,41.92,41.92,0,0,1,35.58,19.71l.62,1.24,1.22-.62a42.9,42.9,0,0,1,23.93-8,41.87,41.87,0,0,1,41.71,41.89V440.64C539,514.76,479.24,574.83,405.43,575Z"/></clipPath><clipPath id="clip-path-4"><rect class="cls-1" x="26.9" y="29.38" width="701.5" height="701.5"/></clipPath></defs><g class="cls-2"><g class="cls-3"><rect class="cls-4" x="112.64" y="168.94" width="533.92" height="432.59"/></g></g><g class="cls-5"><g class="cls-6"><rect x="197" y="175.98" width="361.65" height="418.5"/></g></g></svg>