<?xml version="1.0" encoding="utf-8"?>
<!-- Generator: Adobe Illustrator 25.0.1, SVG Export Plug-In . SVG Version: 6.00 Build 0)  -->
<svg version="1.1" id="Ebene_1" xmlns="http://www.w3.org/2000/svg" xmlns:xlink="http://www.w3.org/1999/xlink" x="0px" y="0px"
	 viewBox="0 0 761.6 761.6" style="enable-background:new 0 0 761.6 761.6;" xml:space="preserve">
<style type="text/css">
	.st0{clip-path:url(#SVGID_2_);}
	.st1{clip-path:url(#SVGID_4_);}
	.st2{fill:#FFFFFF;}
	.st3{clip-path:url(#SVGID_6_);}
	.st4{clip-path:url(#SVGID_8_);}
</style>
<g>
	<defs>
		<path id="SVGID_1_" d="M680.8,511.5v64.9H444.1c0.4-3.6,1.1-8.8,2.2-15.5s5.5-19.8,13.4-39.3c8.1-20,18.7-39,31.4-56.5
			c8.7-12,19.4-25.1,31.9-39.3c12.6-14.2,25.4-28.2,38.5-42c13.1-13.8,21.3-22.7,24.6-26.7c19.6-22.6,29.3-42.6,28.9-60
			c-0.1-11.5-5.5-22.3-14.7-29.2c-9.5-7.5-21.5-11.2-36-11.2c-31.6,0-49.8,18.7-54.6,56.2H443c0-31.6,10.8-60.1,32.5-85.4
			c21.6-25.3,51.6-37.9,89.7-37.9c34.9,0,63.9,10.7,87,32.2s34.6,48,34.6,79.7c0,16.2-3.6,32.3-10.6,46.9
			c-7.1,15-16.5,28.8-27.8,40.9c-11.5,12.4-23.3,24.5-35.5,36.3c-13,12.7-25.3,26.2-36.8,40.4c-12.4,15.1-22,30.3-28.9,45.6
			L680.8,511.5z M164.2,481c15.3,24,37.3,36,66,36s50.7-12.1,66-36.3c15.3-24.2,22.9-56.1,22.9-95.8c0-39.3-7.6-71-22.9-95.2
			c-15.3-24.2-37.3-36.3-66-36.3c-28.7,0-50.7,12.1-66,36.3s-22.9,55.9-22.9,95.2C141.2,424.6,148.9,456.6,164.2,481z M230.2,188.5
			c46.9,0,84.8,18.5,113.8,55.4c28.9,36.9,43.4,83.9,43.4,141c0,57.5-14.5,104.7-43.4,141.6s-66.8,55.4-113.7,55.4
			c-46.6,0-84.3-18.5-113.2-55.4S73.6,442.4,73.6,385c0-57.1,14.5-104.1,43.4-141S183.6,188.6,230.2,188.5L230.2,188.5z"/>
	</defs>
	<clipPath id="SVGID_2_">
		<use xlink:href="#SVGID_1_"  style="overflow:visible;"/>
	</clipPath>
	<g class="st0">
		<g>
			<defs>
				<rect id="SVGID_3_" x="30.7" y="36.5" width="701.5" height="701.5"/>
			</defs>
			<clipPath id="SVGID_4_">
				<use xlink:href="#SVGID_3_"  style="overflow:visible;"/>
			</clipPath>
			<g class="st1">
				<rect x="54.1" y="169.1" class="st2" width="652.2" height="432.4"/>
			</g>
		</g>
	</g>
</g>
<g>
	<defs>
		<path id="SVGID_5_" d="M438.2,335.2c-10.8-0.1-19.7,7.5-19.8,16.9c0,0.2,0,0.3,0,0.5v10.9c-0.3,9.6,8.4,17.6,19.3,17.8
			c10.9,0.2,20-7.4,20.3-16.9c0-0.3,0-0.6,0-0.8v-10.9c0.2-9.5-8.5-17.2-19.3-17.4C438.6,335.2,438.4,335.2,438.2,335.2L438.2,335.2
			z M500.1,346.1c-10.8,0.1-19.5,7.9-19.3,17.4s9,17.1,19.9,17s19.5-7.9,19.3-17.4c-0.1-4.5-2.1-8.8-5.8-12
			C510.5,347.8,505.4,346,500.1,346.1L500.1,346.1z M258.6,422.1c-11.1,0.2-20,8.2-19.8,17.9c0.1,4.4,2.1,8.7,5.6,11.9l5.6,4.9h45.8
			c11-0.2,19.6-8.2,19.4-17.8c-0.3-9.3-8.8-16.7-19.4-17L258.6,422.1z M328,526.4c21.1,18.3,49.6,28.5,79.3,28.2
			c62.2-0.2,112.5-44.4,112.7-98.9v-59.8l-1.9,0.5c-5.5,2.6-11.7,3.9-18,3.8c-11.3,0-22.2-3.9-30.3-10.9l-0.6-1.1l-0.6,0.5
			c-16.6,14.5-43.5,14.4-60.1-0.1c-7.8-6.9-12.3-16.2-12.4-26V235.8c0.8-10.3-8.1-19.3-19.8-20.1c-11.7,0.6-20.6,9.4-19.8,19.7
			c0,0.1,0,0.3,0,0.4v146.1h-22.4V276.5c0.3-9.6-8.4-17.6-19.3-17.8c-10.9-0.2-20,7.4-20.3,16.9c0,0.3,0,0.6,0,0.8v126h1.2
			c23.3,0,42.2,16.5,42.2,36.9s-18.9,36.9-42.2,36.9l0,0h-23.5l54.5,48.3L328,526.4z M407.3,574.2c-35.5,0.2-69.7-12.1-94.7-34.2
			l-83.7-74.4c-16.4-14.3-16.5-37.6-0.2-52c0.1-0.1,0.1-0.1,0.2-0.2c7.6-6.9,18.1-10.9,29.1-10.9h14.2V276.5
			c0-20.4,18.9-36.9,42.1-36.9c6.3-0.1,12.4,1.2,18,3.8l1.9,0.5v-8.7c-1.7-20.4,15.8-38.1,39.1-39.6c23.3-1.5,43.5,13.9,45.1,34.3
			c0.1,1.8,0.1,3.5,0,5.3V320l1.8-0.5c5.6-2.3,11.7-3.6,18-3.8c14.6,0,28.1,6.5,35.9,17.3l0.6,1.1l1.2-0.5
			c7.1-4.4,15.5-6.9,24.1-7.1c23.2,0.1,42.1,16.6,42.1,36.9v92.4C542.1,521.1,481.8,574,407.3,574.2L407.3,574.2z"/>
	</defs>
	<clipPath id="SVGID_6_">
		<use xlink:href="#SVGID_5_"  style="overflow:visible;"/>
	</clipPath>
	<g class="st3">
		<g>
			<defs>
				<rect id="SVGID_7_" x="-19.2" y="28.6" width="800.5" height="701.5"/>
			</defs>
			<clipPath id="SVGID_8_">
				<use xlink:href="#SVGID_7_"  style="overflow:visible;"/>
			</clipPath>
			<g class="st4">
				<rect x="194.3" y="176.7" width="370.2" height="417"/>
			</g>
		</g>
	</g>
</g>
</svg>
