<svg id="Ebene_1" data-name="Ebene 1" xmlns="http://www.w3.org/2000/svg" xmlns:xlink="http://www.w3.org/1999/xlink" viewBox="0 0 761.64 761.64"><defs><style>.cls-1{fill:none;}.cls-2{clip-path:url(#clip-path);}.cls-3{clip-path:url(#clip-path-2);}.cls-4{fill:#fff;}.cls-5{clip-path:url(#clip-path-3);}.cls-6{clip-path:url(#clip-path-4);}</style><clipPath id="clip-path"><path class="cls-1" d="M595,337.22q48,5.46,75,36t27,76.93a146.63,146.63,0,0,1-28.64,87.57q-14.46,19.92-40.93,32.19T566.6,582.2q-31.1,0-55.93-9.82t-40.1-25.92A163.75,163.75,0,0,1,446,513.73a123.85,123.85,0,0,1-13.1-34.65L500,463.8q3.83,19.65,19.37,36.56T565,517.27q30,0,47.74-18.55t17.74-46.38q0-26.73-17.74-42T561.14,395.6a138.21,138.21,0,0,0-28.1,3q-14.44,3-22.64,6.28l-7.64,2.72-16.37-52.92q.56,0,117.86-94.94H456.39V194.82H691v63.83ZM155.21,480.72q22.92,36,66,36t66-36.29q22.9-36.29,22.91-95.75,0-58.93-22.91-95.21t-66-36.28q-43.11,0-66,36.28t-22.92,95.21Q132.29,444.17,155.21,480.72Zm66-292.45q70.38,0,113.76,55.38t43.37,141q0,86.21-43.37,141.58T221.23,581.65q-69.84,0-113.22-55.38T64.64,384.69q0-85.67,43.37-141T221.23,188.27Z"/></clipPath><clipPath id="clip-path-2"><rect class="cls-1" x="29.56" y="36.28" width="701.5" height="701.5"/></clipPath><clipPath id="clip-path-3"><path class="cls-1" d="M450.83,303.44a19.8,19.8,0,0,0-14.2,5.73,19.52,19.52,0,0,0-5.77,14.1v12.4a20,20,0,0,0,39.94,0v-12.4a19.52,19.52,0,0,0-5.77-14.1A19.8,19.8,0,0,0,450.83,303.44ZM388.42,291a19.8,19.8,0,0,0-14.2,5.73,19.52,19.52,0,0,0-5.77,14.11v37.19a20,20,0,0,0,39.94,0V310.88a19.52,19.52,0,0,0-5.77-14.11A19.8,19.8,0,0,0,388.42,291ZM248,380.86a20.29,20.29,0,0,0-18.5,12.39A20,20,0,0,0,233.65,415L339.74,521.65a114,114,0,0,0,123.64,24.23,112.65,112.65,0,0,0,69.83-104.2V286a20,20,0,0,0-39.94,0v31.05a23.54,23.54,0,0,1,.62,6.2v12.4a42.36,42.36,0,0,1-42.44,42.16,38.42,38.42,0,0,1-24.34-8.06l-1.24-.62-.63,1.24a42.61,42.61,0,0,1-78.63-22.32V236.49a20,20,0,0,0-39.95,0v163l22.47,22.94L312.9,438,262.35,386.5A19.87,19.87,0,0,0,248,380.86ZM419.62,576.2A136.1,136.1,0,0,1,331,543.34l-6.86-6.2L218,430.52a42,42,0,0,1,18.62-71.18A42.57,42.57,0,0,1,278,371l5.61,5.58V236.42a42.44,42.44,0,0,1,84.88,0v37.2l1.87-.62a45.74,45.74,0,0,1,18.1-4.34,42.75,42.75,0,0,1,36.2,19.84l.62,1.24,1.25-.62a43.81,43.81,0,0,1,24.34-8.06,37.13,37.13,0,0,1,18.1,4.34l1.87.62v-1.86a42.11,42.11,0,0,1,22-36,42.68,42.68,0,0,1,42.44.93,42.11,42.11,0,0,1,20.41,37V441C555.54,515.58,494.72,576,419.62,576.2Z"/></clipPath><clipPath id="clip-path-4"><rect class="cls-1" x="29.56" y="30.59" width="701.5" height="701.5"/></clipPath></defs><g class="cls-2"><g class="cls-3"><rect class="cls-4" x="45.15" y="168.78" width="671.33" height="432.9"/></g></g><g class="cls-5"><g class="cls-6"><rect x="185.45" y="174.78" width="389.72" height="420.9"/></g></g></svg>