<svg xmlns="http://www.w3.org/2000/svg" viewBox="0 0 25 25"><path fill="#010202" d="M6.482 13.267A1.818 1.818 0 1 0 8.3 15.086a1.82 1.82 0 0 0-1.818-1.819zm0 2.886a1.068 1.068 0 1 1 1.068-1.067 1.069 1.069 0 0 1-1.067 1.067zM14.773 17.595h-5.94a.375.375 0 0 0 0 .75h5.94a.375.375 0 1 0 0-.75z"/><path fill="#010202" d="M23.975 4.756a.374.374 0 0 0-.375-.375h-.014a6.528 6.528 0 0 1-4.802-2.11.376.376 0 0 0-.584.038 6.534 6.534 0 0 1-4.846 1.902.42.42 0 0 0-.269.1.375.375 0 0 0-.12.262L12.93 5.59H6.978a1.325 1.325 0 0 0-1.275.945L4.686 9.863a2.447 2.447 0 0 0-1.588-.53c-1.162 0-2.073.65-2.073 1.48s.91 1.478 2.073 1.478a3 3 0 0 0 .429-.031 2.628 2.628 0 0 0-.843 1.923v6.494a1.304 1.304 0 0 0 1.304 1.303H5.6a1.323 1.323 0 0 0 .935-.39 1.257 1.257 0 0 0 .368-.906.554.554 0 0 1 .554-.56h9.285a.57.57 0 0 1 .403.168.513.513 0 0 1 .151.369 1.304 1.304 0 0 0 1.303 1.319h1.612a1.305 1.305 0 0 0 1.304-1.303v-7.326a9.21 9.21 0 0 0 2.46-5.99zM6.42 6.753a.58.58 0 0 1 .558-.413h5.926l-.03.836a7.593 7.593 0 0 0 .039 1.002l.016.16a8.102 8.102 0 0 0 .181 1l.023.084a9.31 9.31 0 0 0 .84 2.119H4.958l.04-.132a1.15 1.15 0 0 0 .165-.539zm-4.645 4.06c0-.346.543-.73 1.323-.73.752 0 1.273.358 1.309.693l-.093.303a1.56 1.56 0 0 1-1.216.462c-.78 0-1.323-.384-1.323-.729zM20.211 21.23h-1.612a.553.553 0 0 1-.553-.56 1.258 1.258 0 0 0-.368-.906 1.323 1.323 0 0 0-.936-.39H7.457a1.304 1.304 0 0 0-1.304 1.32.513.513 0 0 1-.151.368.568.568 0 0 1-.402.168H3.988a.554.554 0 0 1-.554-.553v-6.494a1.895 1.895 0 0 1 1.893-1.892h9.097a11.496 11.496 0 0 0 3.437 3.384l.091.057h.656l.087-.05.006-.004a10.618 10.618 0 0 0 1.048-.695l.025-.02a11.608 11.608 0 0 0 .99-.839v6.553a.554.554 0 0 1-.553.553zm3.014-13.868a8.399 8.399 0 0 1-2.184 5.39l-.163.181q-.29.323-.6.617c-.112.108-.23.208-.348.31a10.92 10.92 0 0 1-1.524 1.122h-.238a10.935 10.935 0 0 1-3.22-3.267 9.615 9.615 0 0 1-.595-1.092c-.042-.091-.071-.188-.11-.28a8.208 8.208 0 0 1-.303-.806c-.072-.242-.118-.491-.166-.74-.027-.136-.067-.271-.086-.407a6.971 6.971 0 0 1-.063-1.188l.042-1.224.035-1.014a7.287 7.287 0 0 0 4.8-1.907 7.287 7.287 0 0 0 4.723 2.066z"/><path fill="#010202" d="M16.396 8.858a.375.375 0 1 0-.49.566l1.655 1.432a.373.373 0 0 0 .245.092.392.392 0 0 0 .048-.003.377.377 0 0 0 .26-.158l2.713-3.918a.375.375 0 1 0-.616-.428l-2.476 3.575z"/></svg>