<svg xmlns="http://www.w3.org/2000/svg" viewBox="0 0 25 25"><path fill="#010202" d="M6.482 13.142a1.943 1.943 0 1 0 1.943 1.943 1.945 1.945 0 0 0-1.943-1.943zm0 2.886a.943.943 0 1 1 .943-.943.944.944 0 0 1-.942.943zM14.773 17.47h-5.94a.5.5 0 0 0 0 1h5.94a.5.5 0 1 0 0-1z"/><path fill="#010202" d="M24.1 4.756a.501.501 0 0 0-.5-.5c-.005.003-.009 0-.014 0a6.404 6.404 0 0 1-4.71-2.07.5.5 0 0 0-.707-.03.534.534 0 0 0-.065.072 6.389 6.389 0 0 1-4.745 1.857.5.5 0 0 0-.518.482l-.031.898H6.978a1.45 1.45 0 0 0-1.394 1.033L4.62 9.65a2.67 2.67 0 0 0-1.522-.441C1.866 9.209.9 9.913.9 10.812s.966 1.603 2.198 1.603c.043 0 .083-.008.125-.01a2.743 2.743 0 0 0-.664 1.778v6.493a1.43 1.43 0 0 0 1.429 1.429H5.6a1.45 1.45 0 0 0 1.024-.428 1.384 1.384 0 0 0 .404-.995.43.43 0 0 1 .429-.433h9.285a.442.442 0 0 1 .313.13.387.387 0 0 1 .116.28 1.429 1.429 0 0 0 1.428 1.446h1.612a1.43 1.43 0 0 0 1.429-1.429v-7.28a9.318 9.318 0 0 0 2.46-6.034zM6.54 6.79a.457.457 0 0 1 .438-.325h5.796l-.024.706a7.72 7.72 0 0 0 .034.964c.005.062.01.123.018.186a8.213 8.213 0 0 0 .167.97l.011.042a8.89 8.89 0 0 0 .319 1.033v.002a9.733 9.733 0 0 0 .462 1.03l.007.017H5.136a1.26 1.26 0 0 0 .147-.514zM1.9 10.812c0-.246.467-.603 1.198-.603.692 0 1.133.318 1.18.561l-.076.247a1.47 1.47 0 0 1-1.104.398c-.731 0-1.198-.357-1.198-.603zm18.311 10.293h-1.612a.428.428 0 0 1-.428-.434 1.384 1.384 0 0 0-.404-.995 1.451 1.451 0 0 0-1.025-.427H7.457a1.429 1.429 0 0 0-1.43 1.445.39.39 0 0 1-.115.281.445.445 0 0 1-.312.13H3.988a.43.43 0 0 1-.429-.429v-6.493a1.77 1.77 0 0 1 1.768-1.768h9.031a11.617 11.617 0 0 0 3.437 3.366l.122.075h.724l.116-.066a11.168 11.168 0 0 0 1.883-1.38v6.266a.43.43 0 0 1-.429.429zM23.1 7.362a8.265 8.265 0 0 1-2.142 5.296l-.167.185c-.124.138-.255.267-.384.397q-.282.283-.581.545a10.82 10.82 0 0 1-1.454 1.071h-.167a10.8 10.8 0 0 1-3.15-3.209 9.462 9.462 0 0 1-.596-1.09c-.015-.033-.025-.068-.04-.102a8.104 8.104 0 0 1-.362-.961c-.066-.22-.105-.447-.15-.672-.03-.15-.075-.3-.096-.451a6.849 6.849 0 0 1-.062-1.164l.074-2.122A7.41 7.41 0 0 0 18.5 3.228a7.416 7.416 0 0 0 4.6 2.013z"/><path fill="#010202" d="M16.478 8.763a.5.5 0 1 0-.654.756l1.655 1.43a.5.5 0 0 0 .327.123.455.455 0 0 0 .063-.004.499.499 0 0 0 .348-.212l2.713-3.917a.5.5 0 1 0-.822-.568L17.712 9.83z"/></svg>