<svg xmlns="http://www.w3.org/2000/svg" viewBox="0 0 25 25"><path fill="#1d1d1b" d="M19.89 3.496H5.11A1.617 1.617 0 0 0 3.497 5.11v14.778a1.616 1.616 0 0 0 1.615 1.614h14.778a1.617 1.617 0 0 0 1.615-1.614V5.111a1.617 1.617 0 0 0-1.615-1.615zm.614 16.393a.615.615 0 0 1-.615.614H5.111a.615.615 0 0 1-.615-.614V5.111a.616.616 0 0 1 .615-.615h14.778a.616.616 0 0 1 .615.615z"/><path fill="#1d1d1b" d="M12.504 4.87A7.62 7.62 0 0 0 6.45 17.136a.484.484 0 0 0 .09.12 7.612 7.612 0 0 0 11.926 0 .485.485 0 0 0 .09-.121 7.619 7.619 0 0 0-6.053-12.263zM7.468 16.81l2.356-5.18h1.299l-.571 7.213a6.647 6.647 0 0 1-3.084-2.033zm3.732-6.18h-.916l1.09-2.353zm.338 8.429l.588-7.429h.755l.588 7.429a5.981 5.981 0 0 1-1.931 0zm2.137-10.81l1.06 2.381h-.92zm.78 10.594l-.57-7.213h1.299l2.356 5.18a6.647 6.647 0 0 1-3.084 2.033zm3.755-2.974l-1.928-4.239h.789v1.001a.5.5 0 0 0 1 0v-1h.154a.5.5 0 0 0 0-1H15.83l-1.24-2.785a.997.997 0 0 0-1.057-.593 1.024 1.024 0 0 0-.911 1.1l.18 2.277h-.6l.167-2.263a1.017 1.017 0 0 0-.917-1.115 1.004 1.004 0 0 0-1.009.588L9.18 10.63H6.782a.5.5 0 1 0 0 1h.184v1.001a.5.5 0 0 0 1 0v-1h.759l-1.928 4.237a6.633 6.633 0 1 1 11.413 0z"/></svg>