<svg xmlns="http://www.w3.org/2000/svg" viewBox="0 0 25 25"><path fill="#010101" d="M8.768 12.75a4.627 4.627 0 1 0-4.627-4.627 4.632 4.632 0 0 0 4.627 4.627zm0-8.254a3.627 3.627 0 1 1-3.627 3.627 3.63 3.63 0 0 1 3.627-3.627zM19.917 12.47l-.029-.003c-.015 0-.029-.005-.044-.005h-3.618a3.336 3.336 0 0 0-2.903 1.68 4.835 4.835 0 0 0-2.47-.693h-4.17a4.896 4.896 0 0 0-4.89 4.89v1.534a1.633 1.633 0 0 0 1.63 1.63h10.689a1.633 1.633 0 0 0 1.63-1.63v-1.32h6.228a1.239 1.239 0 0 0 1.237-1.237v-1.49a3.363 3.363 0 0 0-3.29-3.356zm-3.691.992h2.753l-2.353 4.091h-.963a4.862 4.862 0 0 0-1.533-2.817 2.347 2.347 0 0 1 2.096-1.274zm-13.433 6.41V18.34a3.895 3.895 0 0 1 3.89-3.89h3.727l-3.483 6.054H3.424a.632.632 0 0 1-.631-.63zm11.95 0a.632.632 0 0 1-.631.631H8.08l3.444-5.986a3.89 3.89 0 0 1 3.218 3.822zm7.464-2.556a.238.238 0 0 1-.237.237h-4.19l2.337-4.063a2.359 2.359 0 0 1 2.09 2.336zM18.035 12.236a3.478 3.478 0 1 0-3.478-3.479 3.482 3.482 0 0 0 3.478 3.479zm0-5.956a2.478 2.478 0 1 1-2.478 2.477 2.48 2.48 0 0 1 2.478-2.477z"/></svg>