<svg xmlns="http://www.w3.org/2000/svg" viewBox="0 0 25 25"><path fill="#010202" d="M24.025 15.504a5.742 5.742 0 0 0-2.361-4.636V5.184a.592.592 0 0 0-.158-.383L17.681.939a.52.52 0 0 0-.36-.15H4.815a1.636 1.636 0 0 0-1.634 1.634v20.154a1.636 1.636 0 0 0 1.634 1.634H20.03a1.636 1.636 0 0 0 1.634-1.634v-2.438a5.741 5.741 0 0 0 2.361-4.635zm-1 0a4.751 4.751 0 1 1-4.75-4.752 4.756 4.756 0 0 1 4.75 4.752zM17.782 2.46l2.188 2.21H18.31a.528.528 0 0 1-.528-.527zm2.882 20.116a.635.635 0 0 1-.634.634H4.816a.634.634 0 0 1-.634-.634V2.423a.634.634 0 0 1 .634-.634h11.966v2.355a1.53 1.53 0 0 0 1.527 1.528h2.355v4.607a5.751 5.751 0 1 0 0 10.449z"/><path fill="#010202" d="M5.728 4.164h.795v3.3a.5.5 0 1 0 1 0v-3.3h.794a.5.5 0 0 0 0-1H5.728a.5.5 0 1 0 0 1zM8.616 7.945a.5.5 0 0 0 .619-.342l.134-.468h1.594l.137.47a.5.5 0 0 0 .96-.28l-1.058-3.611a.865.865 0 0 0-1.68-.034L8.274 7.326a.5.5 0 0 0 .342.62zm1.543-3.558l.511 1.748H9.656zM13.108 7.728l.832-1.346.833 1.346a.5.5 0 1 0 .85-.527l-1.095-1.77.931-1.504a.5.5 0 0 0-.85-.526l-.669 1.08-.668-1.08a.5.5 0 0 0-.85.526l.93 1.505-1.095 1.77a.5.5 0 0 0 .85.526zM9.846 19.196H5.728a.5.5 0 1 0 0 1h4.118a.5.5 0 0 0 0-1zM11.58 10.81H5.728a.5.5 0 1 0 0 1h5.852a.5.5 0 0 0 0-1zM11.034 16.407H5.728a.5.5 0 1 0 0 1h5.306a.5.5 0 0 0 0-1zM5.728 14.61h4.118a.5.5 0 1 0 0-1H5.728a.5.5 0 0 0 0 1zM20.436 12.91l-2.88 4.16-1.528-1.322a.5.5 0 1 0-.654.756l1.95 1.685a.5.5 0 0 0 .327.122.454.454 0 0 0 .063-.004.499.499 0 0 0 .348-.212l3.196-4.615a.5.5 0 0 0-.822-.57z"/></svg>