<?xml version="1.0" encoding="UTF-8"?>
<svg xmlns="http://www.w3.org/2000/svg" viewBox="0 0 25 25"><path d="M6.324 15.787a1.841 1.841 0 1 0 1.841 1.841 1.844 1.844 0 0 0-1.841-1.841zm0 2.682a.841.841 0 1 1 .841-.84.842.842 0 0 1-.841.84zM16.725 15.787a1.841 1.841 0 1 0 1.841 1.841 1.844 1.844 0 0 0-1.841-1.841zm0 2.682a.841.841 0 1 1 .841-.84.842.842 0 0 1-.841.84zM14.287 19.811H8.762a.5.5 0 0 0 0 1h5.525a.5.5 0 1 0 0-1z" style="fill: #000000;"/><path d="M22.397 3.575h-6.969a2.739 2.739 0 0 0-2.283-2.268h-2.04a.5.5 0 0 0-1 .001v1.133h-1.95a.5.5 0 0 0 0 1h1.95v1.268h-1.95a.5.5 0 0 0 0 1h1.95V6.84a.5.5 0 0 0 1 .001h2.04a2.374 2.374 0 0 0 2.277-2.267h6.975a.53.53 0 0 1 .528.53v12.677a.529.529 0 0 1-.528.528H20.43v-1.362a2.742 2.742 0 0 0-.668-1.782c.067.004.132.014.201.014 1.166 0 2.078-.67 2.078-1.526s-.912-1.525-2.078-1.525a2.512 2.512 0 0 0-1.453.427l-.894-2.925a1.383 1.383 0 0 0-1.33-.984H6.761a1.383 1.383 0 0 0-1.33.984l-.883 2.89a2.53 2.53 0 0 0-1.395-.393c-1.165 0-2.078.67-2.078 1.526s.913 1.526 2.078 1.526c.044 0 .085-.007.128-.009a2.742 2.742 0 0 0-.664 1.777v5.88a1.365 1.365 0 0 0 1.363 1.364h1.5a1.366 1.366 0 0 0 1.363-1.364.364.364 0 0 1 .363-.364h8.636a.364.364 0 0 1 .363.364 1.365 1.365 0 0 0 1.364 1.364h1.499a1.365 1.365 0 0 0 1.363-1.364V19.31h1.966a1.53 1.53 0 0 0 1.528-1.528V5.104a1.53 1.53 0 0 0-1.528-1.53zm-9.252 2.267h-2.04V2.306l1.952-.007a1.715 1.715 0 0 1 1.402 1.776c0 1.04-.54 1.767-1.314 1.767zm6.82 7.286c.647 0 1.077.317 1.077.526 0 .21-.43.526-1.078.526-.648 0-1.078-.316-1.078-.526 0-.21.43-.526 1.078-.526zM6.386 9.924a.394.394 0 0 1 .374-.277h9.526a.394.394 0 0 1 .374.277l1.3 4.256H5.102a1.2 1.2 0 0 0 .118-.434zm-4.312 3.73c0-.21.43-.526 1.078-.526.61 0 1.014.28 1.06.487l-.065.215a1.361 1.361 0 0 1-.995.35c-.648 0-1.078-.316-1.078-.526zm17.356 9.174a.364.364 0 0 1-.363.364h-1.5a.364.364 0 0 1-.362-.364 1.365 1.365 0 0 0-1.364-1.364H7.206a1.365 1.365 0 0 0-1.363 1.364.364.364 0 0 1-.364.364H3.98a.364.364 0 0 1-.363-.364v-5.88a1.77 1.77 0 0 1 1.768-1.768h12.279a1.77 1.77 0 0 1 1.767 1.768z" style="fill: #000000;"/></svg>
