<svg xmlns="http://www.w3.org/2000/svg" viewBox="0 0 25 25"><path d="M17.427 10.836a3.641 3.641 0 1 0 3.641 3.641 3.646 3.646 0 0 0-3.641-3.641zm0 6.282a2.641 2.641 0 1 1 2.641-2.64 2.644 2.644 0 0 1-2.641 2.64z"/><path d="M17.427 7.88a6.597 6.597 0 0 0-.899.068V5.503a1.58 1.58 0 0 0-1.578-1.578H4.76a1.58 1.58 0 0 0-1.578 1.578v3.13a1.573 1.573 0 0 0 .459 1.11 1.573 1.573 0 0 0-.459 1.111v3.13a1.573 1.573 0 0 0 .459 1.11 1.573 1.573 0 0 0-.459 1.11v3.13a1.58 1.58 0 0 0 1.578 1.579h10.19a1.454 1.454 0 0 0 .551-.127A6.597 6.597 0 1 0 17.427 7.88zM4.182 5.502a.579.579 0 0 1 .578-.578h10.19a.579.579 0 0 1 .578.578v2.658a6.536 6.536 0 0 0-1.022.41c-.031.015-.064.029-.095.045a6.6 6.6 0 0 0-.886.553c-.022.016-.046.026-.068.042H4.76a.579.579 0 0 1-.578-.578zm7.592 5.59c-.036.06-.076.12-.11.182a6.568 6.568 0 0 0-.395.855c-.026.067-.051.134-.075.203a6.53 6.53 0 0 0-.249.936c-.01.056-.016.111-.025.167a6.584 6.584 0 0 0-.09 1.041v.085H4.76a.579.579 0 0 1-.578-.578v-3.13a.579.579 0 0 1 .578-.578h7.579c-.02.024-.034.052-.053.076a6.634 6.634 0 0 0-.512.74zm1.92 8.82H4.76a.579.579 0 0 1-.578-.578v-3.13a.579.579 0 0 1 .578-.578h6.17c.005.026.013.05.018.076.024.128.055.253.087.378.022.087.041.174.066.259.039.13.084.255.13.381.028.077.053.155.084.23.053.13.113.257.174.383.033.067.063.136.098.202.067.129.142.253.218.376.036.06.07.12.108.178.082.125.17.244.26.362.04.053.078.107.12.159.096.12.2.232.303.345.042.044.08.091.123.135.116.118.238.228.362.337.037.033.071.068.109.1.146.122.3.237.456.348.017.011.032.025.049.037zm3.733.162a5.612 5.612 0 0 1-2.49-.592l-.064-.03a5.59 5.59 0 0 1-.644-.388c-.02-.014-.038-.03-.058-.043a5.62 5.62 0 0 1-.516-.42l-.09-.082a5.634 5.634 0 0 1-.492-.533c-.013-.015-.024-.032-.036-.048a5.636 5.636 0 0 1-.379-.545l-.071-.118a5.587 5.587 0 0 1-.328-.65l-.004-.013a5.564 5.564 0 0 1-.223-.664q-.022-.08-.042-.162a5.517 5.517 0 0 1-.125-.693l-.008-.078a5.77 5.77 0 0 1-.028-.539 5.643 5.643 0 0 1 .033-.598c.007-.066.02-.13.03-.195.019-.13.037-.258.064-.385.018-.083.042-.163.064-.245.027-.104.054-.209.087-.311.03-.092.065-.182.1-.272a5.614 5.614 0 0 1 .242-.543q.056-.109.117-.215a5.531 5.531 0 0 1 .511-.752c.046-.057.096-.11.144-.166.077-.088.154-.177.236-.26.056-.056.117-.107.175-.16q.188-.175.392-.332a5.64 5.64 0 0 1 .373-.266c.047-.03.095-.057.142-.086a5.511 5.511 0 0 1 .947-.457l.106-.04c.169-.058.342-.109.518-.152a5.595 5.595 0 1 1 1.317 11.033z"/></svg>