<svg xmlns="http://www.w3.org/2000/svg" viewBox="0 0 25 25"><path fill="#010101" d="M21.198 17.215l-5.268-5.267 1.463-1.462a3.402 3.402 0 0 0 4.066-4.482.5.5 0 0 0-.822-.177l-1.518 1.518-1.07-1.07 1.518-1.518a.5.5 0 0 0-.177-.82A3.401 3.401 0 0 0 14.901 8l-2.488 2.482L8.04 6.116l.017-.847a.502.502 0 0 0-.25-.443L5.274 3.368a.498.498 0 0 0-.603.08L3.445 4.673a.5.5 0 0 0-.08.603l1.459 2.532a.491.491 0 0 0 .465.25l.783-.05 4.397 4.397-2.492 2.491a3.403 3.403 0 0 0-4.067 4.487.5.5 0 0 0 .363.314.49.49 0 0 0 .46-.135l1.518-1.518 1.07 1.07-1.518 1.518a.5.5 0 0 0 .176.822 3.402 3.402 0 0 0 4.49-4.074l1.467-1.467 5.282 5.282a1.718 1.718 0 0 0 2.43 0l1.55-1.549a1.722 1.722 0 0 0 0-2.43zm-5.375-8.722a.5.5 0 0 0 .116-.53 2.401 2.401 0 0 1 2.25-3.248h.005l-1.206 1.206a.5.5 0 0 0 0 .707l1.777 1.778a.515.515 0 0 0 .707 0l1.203-1.203a2.402 2.402 0 0 1-3.245 2.246.499.499 0 0 0-.529.114l-1.678 1.678-.57-.57a1.702 1.702 0 0 0-.62-.392zm-9.558-1.5c-.01 0-.021 0-.032.002l-.698.045-1.112-1.93.685-.684L7.05 5.545l-.015.764a.5.5 0 0 0 .146.363l4.52 4.514-.518.519L6.62 7.14a.501.501 0 0 0-.354-.146zm3.281 9.896a.5.5 0 0 0-.114.531 2.402 2.402 0 0 1-2.247 3.255h-.011l1.207-1.208a.5.5 0 0 0 0-.707l-1.777-1.776a.5.5 0 0 0-.707 0l-1.203 1.203a2.43 2.43 0 0 1 .153-.854 2.405 2.405 0 0 1 3.092-1.4.498.498 0 0 0 .53-.114l1.8-1.8c.006.018.017.033.024.05.013.034.031.065.047.098a1.7 1.7 0 0 0 .323.484l.56.56zm10.945 2.05l-1.55 1.549a.735.735 0 0 1-1.016 0l-6.545-6.545a.718.718 0 0 1 0-1.016l.651-.65.886-.87a.703.703 0 0 1 .502-.21h.002a.716.716 0 0 1 .508.213l.92.914a.484.484 0 0 0 .126.083l5.515 5.515a.72.72 0 0 1 0 1.017z"/></svg>