<svg xmlns="http://www.w3.org/2000/svg" viewBox="0 0 25 25"><path d="M10.396 22.273a1.022 1.022 0 0 1-.538-.151.738.738 0 0 1-.322-.902l2.621-6.97H6.591a.465.465 0 0 1-.435-.28.503.503 0 0 1 .096-.478l7.825-10.648a.382.382 0 0 1 .036-.043.987.987 0 0 1 1.198-.128.746.746 0 0 1 .352.879l-2.375 7.427h6.122a.466.466 0 0 1 .434.28.504.504 0 0 1-.093.478L11.096 21.98a.966.966 0 0 1-.7.293zm-.157-.79a.463.463 0 0 0 .13.043.206.206 0 0 0 .173-.05l8.235-9.746h-5.883a.585.585 0 0 1-.382-.19.434.434 0 0 1-.066-.39l2.502-7.827a.26.26 0 0 0-.128-.043.212.212 0 0 0-.16.036L7.171 13.501h5.403a.58.58 0 0 1 .39.2.439.439 0 0 1 .049.404l-2.775 7.378z"/></svg>