<?xml version="1.0" encoding="utf-8"?>
<!-- Generator: Adobe Illustrator 27.6.1, SVG Export Plug-In . SVG Version: 6.00 Build 0)  -->
<svg version="1.1" id="Layer_1" xmlns="http://www.w3.org/2000/svg" xmlns:xlink="http://www.w3.org/1999/xlink" x="0px" y="0px"
	 viewBox="0 0 633.7 192.2" style="enable-background:new 0 0 633.7 192.2;" xml:space="preserve">
<style type="text/css">
	.st0{fill:#FFFFFF;}
	.st1{fill:#00247D;}
	.st2{fill:#5C27FF;}
</style>
<g>
	<g>
		<path class="st1" d="M362,166.1c-0.5-0.9-1.1-1.7-1.9-2.3s-1.8-1.1-2.8-1.5c-1.1-0.4-2.2-0.7-3.4-0.9c-0.9-0.2-1.8-0.4-2.6-0.6
			c-0.8-0.2-1.6-0.5-2.2-0.8s-1.1-0.7-1.5-1.1c-0.4-0.4-0.5-0.9-0.5-1.5s0.2-1.2,0.5-1.6c0.3-0.5,0.7-0.9,1.2-1.2s1.1-0.5,1.7-0.7
			s1.3-0.2,1.9-0.2c1.4,0,2.5,0.3,3.4,0.9c1,0.6,1.7,1.4,2.3,2.3l3.8-2.5c-0.9-1.7-2.2-3-3.8-3.8c-1.6-0.8-3.4-1.2-5.3-1.2
			c-1.3,0-2.5,0.2-3.7,0.5s-2.3,0.8-3.2,1.5c-1,0.7-1.7,1.5-2.3,2.5c-0.6,1-0.9,2.1-0.9,3.5s0.3,2.5,0.8,3.4s1.2,1.6,2.1,2.2
			c0.9,0.6,1.9,1,3,1.4c1.2,0.3,2.4,0.7,3.6,0.9c0.7,0.2,1.4,0.3,2.1,0.5s1.3,0.5,1.9,0.8c0.5,0.3,1,0.7,1.3,1.2s0.5,1.1,0.5,1.8
			s-0.2,1.4-0.5,1.9c-0.4,0.5-0.8,1-1.4,1.3s-1.2,0.6-1.9,0.8c-0.7,0.2-1.4,0.2-2.1,0.2c-1.6,0-3-0.3-4-1c-1.1-0.7-2-1.5-2.9-2.6
			l-3.6,2.8c1.4,1.9,2.9,3.2,4.5,4c1.7,0.7,3.7,1.1,6,1.1c1.3,0,2.7-0.2,3.9-0.5c1.3-0.3,2.4-0.8,3.5-1.5c1-0.7,1.9-1.6,2.5-2.6
			c0.6-1.1,0.9-2.4,0.9-3.9C362.7,168.2,362.5,167,362,166.1z"/>
		<path class="st1" d="M366.9,133.7v43.6h4.5v-43.6L366.9,133.7L366.9,133.7z"/>
		<path class="st1" d="M403,163.7c0-2.2-0.3-4.2-0.9-6c-0.6-1.7-1.5-3.2-2.6-4.4s-2.5-2.1-4.1-2.8c-1.6-0.6-3.3-1-5.2-1
			c-2,0-3.8,0.3-5.5,1s-3.1,1.7-4.4,2.9c-1.2,1.2-2.2,2.7-2.9,4.5c-0.7,1.8-1,3.7-1,5.7s0.3,3.8,1,5.5c0.6,1.7,1.5,3.2,2.7,4.5
			s2.6,2.3,4.3,3c1.7,0.7,3.6,1.1,5.7,1.1c2.5,0,4.8-0.4,6.7-1.2c1.9-0.8,3.7-2.3,5.3-4.4l-3.4-2.7c-1.1,1.4-2.3,2.4-3.6,3.1
			c-1.4,0.7-3,1-5,1c-1.2,0-2.4-0.2-3.4-0.7s-1.9-1.1-2.7-1.9c-0.8-0.8-1.4-1.7-1.9-2.8s-0.8-2.2-0.8-3.3H403V163.7z M381.2,161.4
			c0.3-2.3,1.2-4.2,2.8-5.5c1.5-1.4,3.6-2.1,6-2.1c2.5,0,4.5,0.7,5.9,2.1c1.4,1.4,2.2,3.2,2.2,5.5H381.2z"/>
		<path class="st1" d="M432.6,163.7c0-2.2-0.3-4.2-0.9-6c-0.6-1.7-1.5-3.2-2.6-4.4s-2.5-2.1-4.1-2.8c-1.6-0.6-3.3-1-5.2-1
			c-2,0-3.8,0.3-5.5,1s-3.2,1.7-4.4,2.9c-1.2,1.2-2.2,2.7-2.9,4.5c-0.7,1.8-1,3.7-1,5.7s0.3,3.8,1,5.5c0.6,1.7,1.5,3.2,2.7,4.5
			s2.6,2.3,4.3,3c1.7,0.7,3.6,1.1,5.7,1.1c2.5,0,4.8-0.4,6.7-1.2c1.9-0.8,3.7-2.3,5.3-4.4l-3.4-2.7c-1.1,1.4-2.3,2.4-3.6,3.1
			c-1.3,0.7-3,1-5,1c-1.2,0-2.4-0.2-3.4-0.7s-2-1.1-2.7-1.9c-0.8-0.8-1.4-1.7-1.9-2.8s-0.8-2.2-0.8-3.3h21.8v-1.1H432.6z
			 M410.8,161.4c0.3-2.3,1.2-4.2,2.8-5.5c1.5-1.4,3.6-2.1,6.1-2.1s4.5,0.7,5.9,2.1c1.4,1.4,2.2,3.2,2.2,5.5H410.8z"/>
		<path class="st1" d="M464.3,158.2c-0.7-1.7-1.7-3.2-2.9-4.5c-1.2-1.3-2.7-2.3-4.5-3s-3.7-1.1-5.8-1.1c-2,0-3.8,0.4-5.4,1.2
			s-3.1,2-4.3,3.4h-0.1v-3.9h-4.5v40.1h4.5v-17.9h0.1c0.9,1.5,2.2,2.8,4,3.9c1.8,1.1,4,1.6,6.4,1.6c1.9,0,3.6-0.4,5.3-1.1
			c1.7-0.7,3.1-1.7,4.3-3c1.2-1.3,2.2-2.8,2.9-4.5c0.7-1.7,1-3.6,1-5.7S465,159.9,464.3,158.2z M459.8,167.7
			c-0.4,1.2-1.1,2.3-1.9,3.2s-1.9,1.6-3,2.1c-1.2,0.5-2.5,0.8-4,0.8s-2.8-0.3-4-0.8s-2.2-1.2-3-2.1c-0.9-0.9-1.5-2-1.9-3.2
			s-0.7-2.5-0.7-3.9s0.2-2.7,0.7-4c0.4-1.2,1.1-2.3,1.9-3.2s1.9-1.6,3-2.1c1.2-0.5,2.5-0.8,4-0.8s2.8,0.3,4,0.8s2.2,1.2,3,2.1
			c0.9,0.9,1.5,2,1.9,3.2s0.7,2.5,0.7,4S460.3,166.5,459.8,167.7z"/>
		<path class="st2" d="M491.7,160.5v-9.3h-6.2v9.3h-9.3v6.2h9.3v9.3h6.2v-9.3h9.3v-6.2H491.7z"/>
		<path class="st1" d="M553.5,156.2c-0.4-1.4-0.9-2.6-1.7-3.6s-1.9-1.7-3.2-2.2s-2.9-0.8-4.8-0.8c-2.1,0-3.8,0.5-5.1,1.4
			s-2.5,2.2-3.5,3.8c-0.2-0.5-0.5-1-0.9-1.6s-0.9-1.2-1.5-1.7c-0.7-0.5-1.5-1-2.4-1.3c-1-0.4-2.2-0.6-3.7-0.6
			c-1.1,0-2.1,0.1-3.1,0.4c-1,0.3-1.8,0.7-2.6,1.2s-1.4,1-2,1.6s-1,1.3-1.3,1.9h-0.1c0-0.8,0-1.5-0.1-2.2c0-0.7-0.1-1.5-0.1-2.2
			h-4.3c0,0.9,0,1.9,0.1,2.9c0.1,1.1,0.1,2.2,0.1,3.5v20.6h4.5v-13.2c0-1.5,0.2-2.9,0.5-4.2s0.8-2.4,1.5-3.3
			c0.7-0.9,1.5-1.6,2.6-2.1s2.3-0.8,3.8-0.8c1.9,0,3.2,0.6,4,1.9c0.8,1.2,1.2,3.4,1.2,6.4v15.3h4.5v-15.6c0-1.2,0.2-2.3,0.5-3.3
			c0.4-1,0.9-1.8,1.5-2.5s1.4-1.2,2.2-1.6c0.8-0.4,1.8-0.6,2.7-0.6c1.3,0,2.4,0.2,3.2,0.6c0.8,0.4,1.5,1,2,1.7s0.8,1.5,1,2.4
			s0.3,1.8,0.3,2.7v16.1h4.5v-16.4C554,159.2,553.8,157.6,553.5,156.2z"/>
		<path class="st1" d="M586.2,158c-0.7-1.7-1.7-3.2-3-4.5s-2.8-2.2-4.6-2.9s-3.7-1-5.8-1s-4,0.3-5.8,1s-3.3,1.7-4.6,2.9
			s-2.3,2.7-3,4.5c-0.7,1.7-1.1,3.6-1.1,5.8c0,2.1,0.4,4,1.1,5.8c0.7,1.7,1.7,3.2,3,4.5s2.8,2.2,4.6,2.9s3.7,1,5.8,1s4-0.4,5.8-1
			c1.8-0.7,3.3-1.7,4.6-2.9c1.3-1.3,2.3-2.7,3-4.5c0.7-1.7,1.1-3.7,1.1-5.8S587,159.8,586.2,158z M581.8,167.7
			c-0.4,1.2-1.1,2.3-1.9,3.2c-0.8,0.9-1.9,1.6-3,2.1c-1.2,0.5-2.5,0.8-4,0.8s-2.8-0.3-4-0.8s-2.2-1.2-3-2.1c-0.9-0.9-1.5-2-1.9-3.2
			s-0.7-2.5-0.7-3.9s0.2-2.7,0.7-4c0.4-1.2,1.1-2.3,1.9-3.2c0.8-0.9,1.9-1.6,3-2.1c1.2-0.5,2.5-0.8,4-0.8s2.8,0.3,4,0.8
			s2.2,1.2,3,2.1c0.9,0.9,1.5,2,1.9,3.2s0.7,2.5,0.7,4S582.3,166.5,581.8,167.7z"/>
		<path class="st1" d="M606,149.7c-0.3,0-0.6-0.1-0.9-0.1c-1.1,0-2.1,0.1-3.1,0.4c-1,0.3-1.8,0.7-2.6,1.2s-1.4,1-2,1.6
			s-1,1.3-1.3,1.9H596c0-0.8,0-1.5-0.1-2.2c0-0.7-0.1-1.5-0.1-2.2h-4.3c0,0.9,0,1.9,0.1,2.9c0.1,1.1,0.1,2.2,0.1,3.5v20.6h4.5v-13.2
			c0-3.1,0.6-5.6,1.9-7.3c1.3-1.8,3.3-2.7,6-2.7c0.9,0,1.7,0.1,2.4,0.3l0.3-4.6C606.6,149.8,606.3,149.7,606,149.7z"/>
		<path class="st1" d="M633.7,163.7c0-2.2-0.3-4.2-0.9-6c-0.6-1.7-1.5-3.2-2.6-4.4s-2.5-2.1-4.1-2.8c-1.6-0.6-3.3-1-5.2-1
			c-2,0-3.8,0.3-5.5,1s-3.1,1.7-4.4,2.9c-1.2,1.2-2.2,2.7-2.9,4.5s-1,3.7-1,5.7s0.3,3.8,1,5.5c0.6,1.7,1.5,3.2,2.7,4.5
			s2.6,2.3,4.3,3s3.6,1.1,5.7,1.1c2.5,0,4.8-0.4,6.7-1.2s3.7-2.3,5.3-4.4l-3.4-2.7c-1.1,1.4-2.3,2.4-3.6,3.1c-1.4,0.7-3,1-5,1
			c-1.2,0-2.4-0.2-3.4-0.7s-1.9-1.1-2.7-1.9c-0.8-0.8-1.4-1.7-1.9-2.8s-0.8-2.2-0.8-3.3h21.8L633.7,163.7L633.7,163.7z M611.9,161.4
			c0.3-2.3,1.2-4.2,2.8-5.5c1.5-1.4,3.5-2.1,6-2.1s4.5,0.7,5.9,2.1c1.4,1.4,2.2,3.2,2.2,5.5H611.9z"/>
	</g>
	<path class="st1" d="M194,28.7c-30.2,0-52.1,21.6-52.1,51.3c0,29.5,21.6,51,51.3,51c11.9,0,24.6-6.9,30-18.4v16.2h22.7V80.1
		C245.9,49.8,224.6,28.7,194,28.7z M194,108.2c-16.9,0-28.7-11.7-28.7-28.4s11.8-28.4,28.7-28.4s28.7,11.7,28.7,28.4
		S210.9,108.2,194,108.2z"/>
	<path class="st1" d="M337.5,28.7c-30.2,0-52.1,21.6-52.1,51.3c0,29.5,21.6,51,51.3,51c11.9,0,24.6-6.9,30-18.4v16.2h22.7V80.1
		C389.4,49.8,368.1,28.7,337.5,28.7z M337.5,108.1c-16.9,0-28.7-11.7-28.7-28.4s11.8-28.4,28.7-28.4c16.9,0,28.7,11.7,28.7,28.4
		C366.2,96.5,354.4,108.1,337.5,108.1z"/>
	<rect x="255" y="6.1" class="st1" width="23.2" height="122.6"/>
	<path class="st1" d="M512.5,128.7H482l-29.3-33.4l-29,33.4h-30.3l0.6-0.7l32.7-37.1c6.6-7.5,16.2-11.9,26.2-11.9l0,0
		c10,0,19.6,4.3,26.2,11.8L512.5,128.7z"/>
	<path class="st1" d="M511.1,30.8l-31.9,36.4c-6.6,7.5-16.2,11.9-26.2,11.9l0,0c-10,0-19.6-4.3-26.2-11.9l-31.9-36.4h30.4l27.8,32.1
		l27.8-32.1L511.1,30.8z"/>
	<polygon class="st1" points="632.3,30.8 587,77.9 564.2,77.9 518.9,30.8 546.5,30.8 575.7,62.1 605.1,30.8 	"/>
	<path class="st1" d="M64.5,63.4v23.1H104c-5.5,14.6-19.8,20.6-36.8,20.5c-12.7-0.8-22.9-5.1-31.3-13.2s-12.4-17.6-12.1-29
		c0.3-11.5,4.5-21.3,13.1-29.5c8.3-8,18.1-11.7,29.3-11.7c0.2,0,0.4,0,0.6,0c29.8,0.8,37.8,21.7,37.8,21.7h26.9
		c0,0-5.7-24.5-30.4-37.3c-9.4-5.3-20.9-8-34.3-8C48.3,0,32.4,6.3,19.5,18.7C6.7,31.2,0.1,46.8,0,65.2c-0.1,18,6.7,33.6,20.1,46.4
		c13.3,12.7,29.3,19.2,47.4,19.3c0.2,0,0.3,0,0.5,0c14.6,0,28.3-4.7,40.6-13.9C136.9,93.9,135,63.4,135,63.4S64.5,63.4,64.5,63.4z"
		/>
	<rect x="564.2" y="75.2" class="st1" width="22.7" height="53.5"/>
</g>
</svg>
