<svg xmlns="http://www.w3.org/2000/svg" viewBox="0 0 25 25"><path d="M12.5 19.423c-.1 0-.195-.04-.265-.11L5.86 12.94a4.285 4.285 0 0 1-1.263-3.05c0-1.152.449-2.235 1.263-3.049s1.898-1.263 3.05-1.263 2.234.449 3.049 1.264l.54.54.542-.541c.815-.814 1.898-1.263 3.05-1.263s2.234.449 3.049 1.263v.001a4.28 4.28 0 0 1 1.263 3.048 4.285 4.285 0 0 1-1.263 3.05l-6.375 6.375a.374.374 0 0 1-.265.109zM8.91 6.327c-.952 0-1.847.37-2.52 1.043S5.347 8.938 5.347 9.89c0 .952.37 1.847 1.043 2.518l6.11 6.11 6.11-6.11a3.535 3.535 0 0 0 1.043-2.518c0-.951-.37-1.846-1.043-2.518-1.346-1.346-3.693-1.346-5.038 0l-.807.806a.375.375 0 0 1-.53 0l-.807-.806A3.535 3.535 0 0 0 8.91 6.327z"/></svg>