<svg xmlns="http://www.w3.org/2000/svg" viewBox="0 0 25 25"><path fill="#010202" d="M24.025 15.542a5.74 5.74 0 0 0-2.362-4.636V2.462A1.636 1.636 0 0 0 20.03.828H4.816a1.636 1.636 0 0 0-1.634 1.634v20.154a1.636 1.636 0 0 0 1.634 1.634h13.39a1.607 1.607 0 0 0 .226-.023v.023h1.598a1.636 1.636 0 0 0 1.633-1.634v-2.439a5.74 5.74 0 0 0 2.362-4.635zm-1 0a4.751 4.751 0 1 1-4.751-4.751 4.756 4.756 0 0 1 4.751 4.75zm-2.362-13.08v7.855a5.7 5.7 0 0 0-.822-.304V5.667a1.615 1.615 0 0 0-.47-1.143L16.7 1.828h3.329a.634.634 0 0 1 .633.634zM4.816 23.25a.634.634 0 0 1-.634-.634V2.462a.634.634 0 0 1 .634-.634h10.476l.655.661 2.713 2.74a.619.619 0 0 1 .18.438v4.152a5.782 5.782 0 0 0-.566-.028 5.751 5.751 0 0 0 0 11.502c.191 0 .38-.01.567-.029v1.352a.634.634 0 0 1-.634.634zm15.847-.634a.634.634 0 0 1-.633.634h-.318a1.624 1.624 0 0 0 .129-.634V21.07a5.7 5.7 0 0 0 .822-.304z"/><path fill="#010202" d="M11.58 10.85H5.728a.5.5 0 0 0 0 1h5.852a.5.5 0 0 0 0-1zM5.728 9.052h8.765a.5.5 0 0 0 0-1H5.728a.5.5 0 0 0 0 1zM5.728 6.253h8.765a.5.5 0 0 0 0-1H5.728a.5.5 0 0 0 0 1zM20.436 12.95l-2.88 4.158-1.528-1.322a.5.5 0 1 0-.654.756l1.95 1.686a.5.5 0 0 0 .327.122.454.454 0 0 0 .063-.004.499.499 0 0 0 .348-.211l3.196-4.616a.5.5 0 0 0-.822-.57z"/></svg>