<svg xmlns="http://www.w3.org/2000/svg" viewBox="0 0 25 25"><path d="M20.902 18.687a9.422 9.422 0 0 0 1.149-6.477.354.354 0 0 0 .001-.067.361.361 0 0 0-.03-.075 9.483 9.483 0 0 0-3.28-5.66l-.003-.003h-.002a9.58 9.58 0 0 0-6.223-2.27l-.013-.003-.011.002a9.522 9.522 0 0 0-6.217 2.268l-.011.003c-.005.004-.007.01-.012.014a9.697 9.697 0 0 0-3.292 5.702c-.002.008-.007.014-.009.022 0 .006.002.011 0 .017a9.659 9.659 0 0 0 1.15 6.528.365.365 0 0 0 .126.125.344.344 0 0 0 .047.022.366.366 0 0 0 .12.032c.011 0 .021.009.033.009.007 0 .013-.005.02-.006a.367.367 0 0 0 .155-.041l.012-.003 1.439-.827a.375.375 0 0 0-.374-.65l-1.099.63a8.897 8.897 0 0 1-.94-5.33l1.24.223a.392.392 0 0 0 .067.006.375.375 0 0 0 .066-.745l-1.24-.223a8.947 8.947 0 0 1 2.691-4.685l.82.975a.373.373 0 0 0 .288.134.375.375 0 0 0 .287-.617l-.818-.97a8.75 8.75 0 0 1 5.087-1.864v1.29a.375.375 0 1 0 .75 0V4.888a8.933 8.933 0 0 1 5.094 1.849l-.825.98a.375.375 0 1 0 .574.483l.823-.979a8.773 8.773 0 0 1 2.686 4.69l-1.237.223a.375.375 0 0 0 .066.744.392.392 0 0 0 .067-.006l1.25-.226a8.813 8.813 0 0 1-.955 5.331l-1.094-.629a.375.375 0 0 0-.374.65l1.439.828a.37.37 0 0 0 .186.05.378.378 0 0 0 .186-.05l.007-.006a.368.368 0 0 0 .132-.13l.001-.003z"/><path d="M15.359 9.838l-2.203 2.63a1.503 1.503 0 0 0-.655-.154 1.532 1.532 0 1 0 1.23.635l2.203-2.631a.375.375 0 0 0-.575-.48zm-2.858 4.77a.771.771 0 1 1 .77-.772.772.772 0 0 1-.77.771z"/></svg>