<svg xmlns="http://www.w3.org/2000/svg" viewBox="0 0 25 25"><path fill="#010101" d="M17.524 7.96l-4.294-2.8a1.331 1.331 0 0 0-.355-.164V1.828a.375.375 0 0 0-.75 0v3.168a1.336 1.336 0 0 0-.355.164l-4.294 2.8a1.333 1.333 0 0 0-.606 1.12v12.879a1.349 1.349 0 0 0 1.347 1.346h8.566a1.348 1.348 0 0 0 1.347-1.346V9.079a1.333 1.333 0 0 0-.606-1.118zM12.5 9.887a.375.375 0 0 0 .375-.375V8.69a.909.909 0 1 1-.75 0v.823a.375.375 0 0 0 .375.374zm4.88 12.073a.597.597 0 0 1-.597.596H8.217a.598.598 0 0 1-.597-.596V9.079a.585.585 0 0 1 .266-.49l4.24-2.766V7.9a1.658 1.658 0 1 0 .75 0V5.824l4.237 2.765a.585.585 0 0 1 .267.49z"/><path fill="#010101" d="M10.632 17.13a.37.37 0 0 0-.43.311.466.466 0 0 1-.925-.073v-.89a.466.466 0 0 1 .921-.094.375.375 0 0 0 .736-.15 1.216 1.216 0 0 0-2.407.243v.89a1.216 1.216 0 0 0 2.417.191.375.375 0 0 0-.312-.428zM13.376 15.261a.375.375 0 0 0-.375.375v.944h-.761v-.944a.375.375 0 0 0-.75 0v2.5a.375.375 0 0 0 .75 0v-.806H13v.806a.375.375 0 0 0 .75 0v-2.5a.375.375 0 0 0-.375-.375zM16.098 15.261h-1.384a.375.375 0 0 0-.375.375v2.5a.375.375 0 0 0 .75 0v-.875h.634a.375.375 0 0 0 0-.75h-.634v-.5h1.01a.375.375 0 0 0 0-.75z"/></svg>