<svg xmlns="http://www.w3.org/2000/svg" viewBox="0 0 25 25"><path d="M12.717 8.464h-1.95l.784-2.45a.512.512 0 0 0-.234-.6.605.605 0 0 0-.733.082.381.381 0 0 0-.036.043L7.67 9.462a.418.418 0 0 0-.092.434.44.44 0 0 0 .38.253h1.726l-.853 2.268a.51.51 0 0 0 .214.618.597.597 0 0 0 .32.094.62.62 0 0 0 .446-.194l3.206-3.794a.422.422 0 0 0 .077-.432.44.44 0 0 0-.377-.245zm-2.792 3.175l.637-1.693a.42.42 0 0 0-.043-.37.444.444 0 0 0-.34-.177H8.64l1.841-2.504-.575 1.799a.422.422 0 0 0 .061.354.449.449 0 0 0 .331.165h1.676z"/><path d="M21.44 5.228a.375.375 0 0 0-.376-.375h-.776V3.502a.375.375 0 0 0-.75 0v1.351h-.848V3.502a.375.375 0 1 0-.75 0v1.351h-.776a.373.373 0 0 0-.024.745v1.42a1.692 1.692 0 0 0 1.599 1.627v7.834a1.344 1.344 0 0 1-1.34 1.334h-1.436V3.057a1.433 1.433 0 0 0-1.432-1.431H6.144a1.433 1.433 0 0 0-1.431 1.431v18.887a1.433 1.433 0 0 0 1.431 1.432h8.387a1.433 1.433 0 0 0 1.432-1.432v-3.38h1.436a2.096 2.096 0 0 0 2.09-2.083V8.647a1.957 1.957 0 0 0 1.599-1.629v-1.42a.373.373 0 0 0 .351-.37zm-6.227 16.716a.682.682 0 0 1-.682.682H6.144a.682.682 0 0 1-.681-.682V3.057a.682.682 0 0 1 .681-.681h8.387a.682.682 0 0 1 .682.681zm3.955-14.02c-.586.003-1.278-.266-1.278-.906V5.603h2.449l.004 1.349a1.187 1.187 0 0 1-1.175.972z"/></svg>