<svg xmlns="http://www.w3.org/2000/svg" viewBox="0 0 25 25"><path fill="#010202" d="M22.282 15.046a4.811 4.811 0 0 0-2-3.895v-4.85a.45.45 0 0 0-.12-.29L16.92 2.738a.392.392 0 0 0-.271-.113H6.053a1.337 1.337 0 0 0-1.335 1.336V21.04a1.337 1.337 0 0 0 1.335 1.335h12.892a1.337 1.337 0 0 0 1.336-1.335v-2.1a4.81 4.81 0 0 0 2.001-3.894zm-5.29-11.171l2.02 2.04h-1.525a.496.496 0 0 1-.496-.496zm2.54 17.165a.586.586 0 0 1-.587.585H6.053a.586.586 0 0 1-.585-.585V3.96a.586.586 0 0 1 .585-.586h10.188V5.42a1.247 1.247 0 0 0 1.246 1.246h2.044v4.043a4.768 4.768 0 0 0-2.073-.488 4.825 4.825 0 0 0 0 9.65 4.77 4.77 0 0 0 2.073-.487zm-2.074-1.92a4.075 4.075 0 1 1 4.074-4.074 4.08 4.08 0 0 1-4.074 4.074z"/><path fill="#010202" d="M6.826 5.387h.722v2.846a.375.375 0 0 0 .75 0V5.387h.722a.375.375 0 0 0 0-.75H6.826a.375.375 0 0 0 0 .75zM9.287 8.594a.375.375 0 0 0 .464-.257l.124-.432h1.423l.127.434a.375.375 0 1 0 .72-.211l-.897-3.063a.676.676 0 0 0-.515-.519.685.685 0 0 0-.516.087.667.667 0 0 0-.298.407L9.03 8.13a.375.375 0 0 0 .257.464zm1.294-3.143l.498 1.704h-.988zM13.038 8.43l.747-1.207.747 1.207a.375.375 0 1 0 .638-.394l-.944-1.526.805-1.3a.375.375 0 0 0-.638-.395l-.608.983-.608-.983a.375.375 0 0 0-.637.395l.804 1.3-.944 1.526a.375.375 0 1 0 .638.394zM10.316 18.223h-3.49a.375.375 0 1 0 0 .75h3.49a.375.375 0 0 0 0-.75zM11.785 11.117H6.826a.375.375 0 0 0 0 .75h4.959a.375.375 0 0 0 0-.75zM11.323 15.86H6.826a.375.375 0 1 0 0 .75h4.497a.375.375 0 0 0 0-.75zM6.826 14.238h3.49a.375.375 0 0 0 0-.75h-3.49a.375.375 0 0 0 0 .75zM19.33 12.876l-2.471 3.568-1.337-1.156a.375.375 0 0 0-.49.568l1.653 1.429a.378.378 0 0 0 .245.09.39.39 0 0 0 .047-.002.377.377 0 0 0 .26-.158l2.71-3.913a.375.375 0 0 0-.617-.426z"/></svg>