<svg xmlns="http://www.w3.org/2000/svg" viewBox="0 0 25 25"><g data-name="Ebene 3"><path d="M21.287 8.187a.375.375 0 0 0-.375-.375h-.776v-1.35a.375.375 0 0 0-.75 0v1.35h-.849v-1.35a.375.375 0 0 0-.75 0v1.35h-.776a.373.373 0 0 0-.023.745v1.42a1.692 1.692 0 0 0 1.598 1.626v8.083a1.13 1.13 0 0 1-1.128 1.128H10.9a1.13 1.13 0 0 1-1.128-1.128v-1.284h.65a.375.375 0 0 0 .374-.375v-.841h2.736a1.433 1.433 0 0 0 1.431-1.432V4.867a1.433 1.433 0 0 0-1.431-1.431H5.145a1.433 1.433 0 0 0-1.432 1.431v10.887a1.433 1.433 0 0 0 1.432 1.432h2.852v.84a.375.375 0 0 0 .375.376h.65v1.284a1.88 1.88 0 0 0 1.878 1.878h6.558a1.88 1.88 0 0 0 1.878-1.878v-8.08a1.955 1.955 0 0 0 1.599-1.628v-1.42a.373.373 0 0 0 .352-.371zM4.463 15.754V4.867a.682.682 0 0 1 .682-.681h8.387a.682.682 0 0 1 .681.681v10.887a.682.682 0 0 1-.681.682H5.145a.682.682 0 0 1-.682-.682zm4.284 1.432h1.3v.466h-1.3zm10.27-6.304c-.605.005-1.28-.265-1.28-.904V8.562h2.45l.004 1.35a1.186 1.186 0 0 1-1.174.97z"/><path d="M8.21 8.57h.715l-.368.977a.315.315 0 0 0 .13.38.35.35 0 0 0 .19.055.372.372 0 0 0 .267-.117l1.517-1.795a.271.271 0 0 0 .05-.284.281.281 0 0 0-.245-.16h-.825l.341-1.067a.314.314 0 0 0-.14-.367.364.364 0 0 0-.437.048l-.026.029-1.353 1.848a.27.27 0 0 0-.064.286.28.28 0 0 0 .248.167z"/><path d="M13.544 5.158a.375.375 0 0 0-.375-.375H5.507a.375.375 0 0 0-.375.375v5.973a.375.375 0 0 0 .375.375h7.662a.375.375 0 0 0 .375-.375zm-.75 5.598H5.882V5.533h6.912zM8.113 13.649h-1.4a.375.375 0 0 0 0 .75h1.4a.375.375 0 0 0 0-.75zM12.066 13.649h-.325v-.324a.375.375 0 0 0-.75 0v.324h-.325a.375.375 0 1 0 0 .75h.325v.325a.375.375 0 0 0 .75 0v-.325h.325a.375.375 0 0 0 0-.75z"/></g></svg>