<svg xmlns="http://www.w3.org/2000/svg" viewBox="0 0 25 25"><path fill="#010101" d="M21.396 17.478l-5.55-5.549 1.673-1.673a3.376 3.376 0 0 0 4.114-4.424.375.375 0 0 0-.616-.133l-1.67 1.67-1.309-1.308 1.671-1.67a.375.375 0 0 0-.132-.616 3.376 3.376 0 0 0-4.434 4.113l-2.733 2.727-4.668-4.661.02-.935a.376.376 0 0 0-.189-.333L4.955 3.177a.38.38 0 0 0-.452.06l-1.268 1.27a.374.374 0 0 0-.06.452l1.508 2.618a.352.352 0 0 0 .35.186l.873-.056 4.694 4.695-2.737 2.736A3.377 3.377 0 0 0 3.75 19.57a.375.375 0 0 0 .272.235.38.38 0 0 0 .344-.1l1.67-1.671 1.309 1.307-1.67 1.67a.375.375 0 0 0 .131.616 3.376 3.376 0 0 0 4.435-4.12l1.677-1.677 5.564 5.564a1.64 1.64 0 0 0 2.313 0l1.602-1.602a1.636 1.636 0 0 0 0-2.314zm-5.559-9.223a.375.375 0 0 0 .086-.397 2.626 2.626 0 0 1 2.79-3.531l-1.47 1.468a.375.375 0 0 0 0 .53l1.838 1.84a.382.382 0 0 0 .53 0l1.467-1.467a2.625 2.625 0 0 1-3.528 2.778.378.378 0 0 0-.397.086L15.316 11.4l-.69-.69a1.623 1.623 0 0 0-.81-.438zM6.051 6.947h-.025L5.216 7 3.968 4.833l.862-.862 2.177 1.254-.018.873a.376.376 0 0 0 .11.274l4.776 4.77-.737.736-4.822-4.822a.375.375 0 0 0-.265-.11zM9.545 17.14a.376.376 0 0 0-.085.399 2.625 2.625 0 0 1-1.38 3.328 2.592 2.592 0 0 1-1.411.21l1.47-1.47a.376.376 0 0 0 0-.531l-1.838-1.838a.375.375 0 0 0-.53 0l-1.467 1.467a2.623 2.623 0 0 1 3.529-2.786.373.373 0 0 0 .397-.086l2.033-2.034c.005.025.019.047.025.072a1.597 1.597 0 0 0 .184.441 1.626 1.626 0 0 0 .14.19c.031.04.052.086.088.124l.68.68zm11.32 2.12l-1.602 1.603a.886.886 0 0 1-1.252 0l-6.77-6.77a.886.886 0 0 1 0-1.252l.707-.707.881-.864a.881.881 0 0 1 1.249.002l.952.945c.02.02.05.016.073.03l5.763 5.762a.885.885 0 0 1 0 1.251z"/></svg>