<svg xmlns="http://www.w3.org/2000/svg" viewBox="0 0 25 25"><path d="M12.5 18.589a6.089 6.089 0 1 1 6.089-6.089 6.096 6.096 0 0 1-6.09 6.089zm0-11.428a5.339 5.339 0 1 0 5.339 5.34 5.345 5.345 0 0 0-5.34-5.34zM5.213 12.875H2.175a.375.375 0 0 1 0-.75h3.038a.375.375 0 0 1 0 .75zM22.825 12.875h-3.038a.375.375 0 0 1 0-.75h3.038a.375.375 0 0 1 0 .75z"/><path d="M12.5 5.588a.375.375 0 0 1-.375-.375V2.175a.375.375 0 0 1 .75 0v3.038a.375.375 0 0 1-.375.375zM12.5 23.2a.375.375 0 0 1-.375-.375v-3.038a.375.375 0 0 1 .75 0v3.038a.375.375 0 0 1-.375.375zM7.347 7.722a.373.373 0 0 1-.265-.11L4.934 5.465a.375.375 0 0 1 .53-.531L7.612 7.08a.375.375 0 0 1-.265.64zM19.8 20.176a.373.373 0 0 1-.264-.11l-2.148-2.147a.375.375 0 0 1 .53-.531l2.148 2.147a.375.375 0 0 1-.265.64zM5.2 20.176a.375.375 0 0 1-.266-.64l2.148-2.148a.375.375 0 0 1 .53.531l-2.148 2.148a.373.373 0 0 1-.265.109zM17.653 7.722a.375.375 0 0 1-.265-.64l2.147-2.148a.375.375 0 0 1 .53.53l-2.147 2.148a.373.373 0 0 1-.265.11z"/></svg>