<!-- Generated by IcoMoon.io -->
<svg version="1.1" xmlns="http://www.w3.org/2000/svg" width="1024" height="1024" viewBox="0 0 1024 1024" fill="#FFFFFF">
<title></title>
<g id="icomoon-ignore">
</g>
<path d="M512 0c-283.307 0-512 228.693-512 512s228.693 512 512 512c283.307 0 512-228.693 512-512s-228.693-512-512-512zM512 993.28c-266.24 0-481.28-215.040-481.28-481.28s215.040-481.28 481.28-481.28c266.24 0 481.28 215.040 481.28 481.28s-215.040 481.28-481.28 481.28zM546.133 399.36c0-6.827 0-10.24 0-13.653s3.413-6.827 3.413-10.24c3.413-3.413 3.413-3.413 10.24-6.827 3.413 0 10.24-3.413 17.067-3.413h37.547v-71.68h-61.44c-34.133 0-58.027 6.827-75.093 23.893-13.653 17.067-23.893 40.96-23.893 71.68v44.373h-44.373v78.507h44.373v218.453h92.16v-218.453h61.44l6.827-75.093h-68.267v-37.547z"></path>
</svg>
