<!-- Generated by IcoMoon.io -->
<svg version="1.1" xmlns="http://www.w3.org/2000/svg" width="448" height="448" viewBox="0 0 448 448" fill="#FFFFFF">
<title></title>
<g id="icomoon-ignore">
</g>
<path d="M224 0c-123.944 0-224 100.057-224 224s100.057 224 224 224 224-100.057 224-224-100.057-224-224-224zM224 434.569c-116.462 0-210.569-94.063-210.569-210.569s94.106-210.569 210.569-210.569 210.569 94.063 210.569 210.569-94.106 210.569-210.569 210.569z"></path>
<path d="M262.5 225.006c0-21.875-17.85-39.725-39.725-39.725s-39.725 17.85-39.725 39.725 17.85 39.725 39.725 39.725 39.725-17.85 39.725-39.725zM283.894 225.006c0 33.818-27.3 61.119-61.119 61.119s-61.119-27.3-61.119-61.119 27.3-61.119 61.119-61.119 61.119 27.3 61.119 61.119zM300.65 161.438c0 7.919-6.344 14.263-14.263 14.263s-14.263-6.344-14.263-14.263 6.344-14.263 14.263-14.263c7.919-0.044 14.263 6.344 14.263 14.263zM222.775 127.268c-17.369 0-54.6-1.4-70.262 4.813-5.425 2.188-9.45 4.813-13.65 9.012s-6.825 8.225-9.012 13.65c-6.213 15.662-4.813 52.894-4.813 70.262s-1.4 54.6 4.813 70.262c2.188 5.425 4.813 9.45 9.012 13.65s8.225 6.825 13.65 9.012c15.663 6.213 52.894 4.813 70.262 4.813s54.6 1.4 70.262-4.813c5.425-2.188 9.45-4.813 13.65-9.012s6.825-8.225 9.012-13.65c6.213-15.662 4.813-52.894 4.813-70.262s1.4-54.6-4.813-70.262c-2.188-5.425-4.813-9.45-9.012-13.65s-8.225-6.825-13.65-9.012c-15.662-6.212-52.894-4.813-70.262-4.813zM341.95 225.006c0 16.45 0.175 32.725-0.788 49.175-0.919 19.075-5.294 36.007-19.25 49.963s-30.887 18.288-49.963 19.25c-16.45 0.919-32.725 0.788-49.175 0.788s-32.725 0.175-49.175-0.788c-19.075-0.919-36.007-5.294-49.962-19.25s-18.288-30.887-19.25-49.963c-0.919-16.45-0.788-32.725-0.788-49.175s-0.175-32.725 0.788-49.175c0.919-19.075 5.294-36.007 19.25-49.963s30.887-18.288 49.962-19.25c16.45-0.919 32.725-0.788 49.175-0.788s32.725-0.175 49.175 0.788c19.075 0.919 36.007 5.294 49.963 19.25s18.288 30.888 19.25 49.963c0.919 16.45 0.788 32.769 0.788 49.175z"></path>
</svg>
