<!-- Generated by IcoMoon.io -->
<svg version="1.1" xmlns="http://www.w3.org/2000/svg" width="1024" height="1024" viewBox="0 0 1024 1024" fill="#FFFFFF">
<title></title>
<g id="icomoon-ignore">
</g>
<path d="M512 0c-283.307 0-512 228.693-512 512s228.693 512 512 512c283.307 0 512-228.693 512-512s-228.693-512-512-512zM512 993.28c-266.24 0-481.28-215.040-481.28-481.28s215.040-481.28 481.28-481.28c266.24 0 481.28 215.040 481.28 481.28s-215.040 481.28-481.28 481.28zM709.973 348.16c-17.067 10.24-34.133 17.067-54.613 20.48-17.067-17.067-37.547-27.307-61.44-27.307s-44.373 6.827-61.44 23.893c-17.067 17.067-23.893 37.547-23.893 61.44 0 6.827 0 13.653 3.413 20.48-34.133-3.413-68.267-10.24-98.987-27.307s-58.027-37.547-78.507-61.44c-6.827 13.653-10.24 27.307-10.24 44.373 0 13.653 3.413 27.307 10.24 40.96s17.067 23.893 27.307 30.72c-13.653 0-27.307-3.413-37.547-10.24v0c0 20.48 6.827 37.547 20.48 54.613s30.72 23.893 47.787 30.72c-6.827 3.413-13.653 3.413-23.893 3.413-3.413 0-10.24 0-17.067 0 6.827 17.067 17.067 30.72 30.72 40.96s30.72 17.067 51.2 17.067c-30.72 23.893-64.853 37.547-105.813 37.547-6.827 0-13.653 0-20.48 0 40.96 23.893 81.92 37.547 129.707 37.547 30.72 0 58.027-3.413 85.333-13.653s47.787-23.893 68.267-37.547c20.48-17.067 34.133-34.133 47.787-54.613s23.893-44.373 30.72-64.853c6.827-23.893 10.24-44.373 10.24-68.267 0-3.413 0-10.24 0-10.24 17.067-13.653 30.72-27.307 44.373-44.373-17.067 6.827-34.133 10.24-47.787 13.653 13.653-20.48 27.307-37.547 34.133-58.027z"></path>
</svg>
